<?xml version="1.0" encoding="UTF-8"?>
<!DOCTYPE svg PUBLIC "-//W3C//DTD SVG 1.1//EN" "http://www.w3.org/Graphics/SVG/1.1/DTD/svg11.dtd">
<svg xmlns="http://www.w3.org/2000/svg" version="1.1" width="50px" height="50px" style="shape-rendering:geometricPrecision; text-rendering:geometricPrecision; image-rendering:optimizeQuality; fill-rule:evenodd; clip-rule:evenodd" xmlns:xlink="http://www.w3.org/1999/xlink">
<g><path style="opacity:0.749" fill="#fefffe" d="M 17.5,4.5 C 37.6499,2.48275 46.4833,11.4828 44,31.5C 38.6574,42.7523 29.8241,46.9189 17.5,44C 6.24773,38.6574 2.08107,29.8241 5,17.5C 7.35314,11.3154 11.5198,6.98203 17.5,4.5 Z M 20.5,8.5 C 37.5458,9.03993 43.3792,17.3733 38,33.5C 29,42.8333 20,42.8333 11,33.5C 6.01989,21.9278 9.18655,13.5945 20.5,8.5 Z"/></g>
<g><path style="opacity:0.73" fill="#fefffe" d="M 22.5,12.5 C 23.8333,12.5 25.1667,12.5 26.5,12.5C 26.334,17.8437 26.5006,23.1771 27,28.5C 29.2802,24.5879 31.4469,24.5879 33.5,28.5C 31.0928,31.9114 28.0928,34.5781 24.5,36.5C 20.9072,34.5781 17.9072,31.9114 15.5,28.5C 17.5531,24.5879 19.7198,24.5879 22,28.5C 22.4994,23.1771 22.666,17.8437 22.5,12.5 Z"/></g>
</svg>
